<svg width="10" height="10" viewBox="0 0 10 10" fill="none" xmlns="http://www.w3.org/2000/svg">
<g id="19">
<path id="Vector" d="M5.00475 10.0029C4.86284 10.0037 4.7239 9.96222 4.60564 9.88377C4.48738 9.80533 4.39517 9.69344 4.34075 9.56238C4.28633 9.43131 4.27218 9.28701 4.30009 9.14787C4.328 9.00873 4.39672 8.88106 4.49748 8.78113L8.28411 5.00164L4.49748 1.22215C4.38043 1.08548 4.31927 0.909664 4.32622 0.729852C4.33316 0.55004 4.4077 0.37947 4.53494 0.252229C4.66219 0.124988 4.83276 0.0504469 5.01257 0.0435016C5.19238 0.0365562 5.36819 0.0977182 5.50487 0.214765L9.79162 4.50152C9.92469 4.63538 9.99938 4.81646 9.99938 5.00521C9.99938 5.19396 9.92469 5.37504 9.79162 5.50891L5.50487 9.79566C5.37179 9.92765 5.19218 10.0021 5.00475 10.0029Z" fill="white"/>
<path id="Vector_2" d="M0.718614 10.0034C0.576705 10.0042 0.437765 9.96276 0.319508 9.88432C0.201251 9.80587 0.109035 9.69398 0.0546167 9.56292C0.000198702 9.43185 -0.0139558 9.28755 0.0139579 9.14841C0.0418715 9.00928 0.110589 8.8816 0.211348 8.78167L3.99798 5.00218L0.211348 1.22269C0.0768129 1.08816 0.00123175 0.905691 0.00123175 0.715429C0.00123175 0.525168 0.0768129 0.342699 0.211348 0.208163C0.345883 0.073628 0.528352 -0.00195312 0.718614 -0.00195312C0.908876 -0.00195313 1.09134 0.073628 1.22588 0.208163L5.51263 4.49492C5.6457 4.62878 5.72039 4.80986 5.72039 4.99861C5.72039 5.18736 5.6457 5.36844 5.51263 5.5023L1.22588 9.78906C1.15971 9.85656 1.0808 9.91027 0.993727 9.94706C0.906653 9.98385 0.813142 10.003 0.718614 10.0034Z" fill="white"/>
</g>
</svg>
