<svg width="14" height="15" viewBox="0 0 14 15" fill="none" xmlns="http://www.w3.org/2000/svg">
<g id="fi_597177" clipPath="url(#clip0_10467_4631)">
<g id="Group">
<g id="Group_2">
<path id="Vector" d="M13.6199 10.7746L11.6661 8.82085C10.9684 8.12308 9.78218 8.40222 9.50307 9.30928C9.29374 9.9373 8.59598 10.2862 7.96799 10.1466C6.57246 9.79772 4.68849 7.98353 4.33961 6.51822C4.13028 5.89021 4.54894 5.19244 5.17693 4.98314C6.08402 4.70403 6.36313 3.51783 5.66536 2.82007L3.71162 0.866327C3.15341 0.377891 2.31609 0.377891 1.82766 0.866327L0.501902 2.19208C-0.823851 3.58761 0.641455 7.28576 3.92095 10.5653C7.20045 13.8448 10.8986 15.3799 12.2941 13.9843L13.6199 12.6586C14.1083 12.1003 14.1083 11.263 13.6199 10.7746Z" fill="white"/>
</g>
</g>
</g>
<defs>
<clipPath id="clip0_10467_4631">
<rect width="14" height="14" fill="white" transform="translate(0 0.5)"/>
</clipPath>
</defs>
</svg>
