<svg width="15" height="12" viewBox="0 0 15 12" fill="none" xmlns="http://www.w3.org/2000/svg">
<path id="Vector" d="M14.557 5.52526L9.94334 0.911579C9.81904 0.791519 9.65255 0.725086 9.47973 0.726587C9.30692 0.728089 9.14161 0.797406 9.01941 0.919608C8.89721 1.04181 8.82789 1.20712 8.82639 1.37993C8.82489 1.55275 8.89132 1.71924 9.01138 1.84354L12.5 5.33214H0.909097C0.734294 5.33214 0.56665 5.40159 0.443045 5.52519C0.31944 5.64879 0.25 5.81644 0.25 5.99124C0.25 6.16605 0.31944 6.33369 0.443045 6.45729C0.56665 6.5809 0.734294 6.65034 0.909097 6.65034H12.5L9.01138 10.1389C8.94843 10.1997 8.89822 10.2725 8.86368 10.3529C8.82913 10.4333 8.81095 10.5198 8.81019 10.6073C8.80943 10.6948 8.82611 10.7816 8.85925 10.8626C8.89239 10.9436 8.94133 11.0172 9.00321 11.0791C9.06509 11.141 9.13869 11.1899 9.21969 11.223C9.30069 11.2562 9.38748 11.2729 9.47499 11.2721C9.5625 11.2713 9.64899 11.2532 9.7294 11.2186C9.80982 11.1841 9.88254 11.1339 9.94334 11.0709L14.557 6.45722C14.6806 6.33362 14.75 6.16601 14.75 5.99124C14.75 5.81647 14.6806 5.64886 14.557 5.52526Z" fill="#E52D38"/>
</svg>
